<svg xmlns="http://www.w3.org/2000/svg" viewBox="0 0 247.24 142.13"><defs><style>.cls-1{font-size:13px;font-family:TA-rb0925-83pv-RKSJ-H, TA-rb;letter-spacing:0.2em;}.cls-1,.cls-2,.cls-5,.cls-6{fill:#4d4d4d;}.cls-2{font-size:22px;font-family:Montserrat-ExtraLight, Montserrat;font-weight:200;}.cls-3{letter-spacing:-0.01em;}.cls-4{letter-spacing:-0.02em;}.cls-5{font-size:42px;font-family:GillSansNovaInline-Light, Gill Sans Nova Inline;font-weight:300;}</style></defs><title>dark</title><g id="Layer_2" data-name="Layer 2"><g id="Logo_Dark"><g id="Title"><text class="cls-1" transform="translate(69.02 134.58)">シロミワールド</text><text class="cls-2" transform="translate(24.28 118)">SHIROMI<tspan class="cls-3" x="99.22" y="0">_</tspan><tspan class="cls-4" x="110" y="0">W</tspan><tspan x="133.49" y="0">ORLD</tspan></text><g id="Tittle_Boarder"><text class="cls-5" transform="translate(233 131.08)">]</text><text class="cls-5" transform="translate(0 131.08)">[</text></g></g><g id="Fish"><path id="Fish-2" data-name="Fish" class="cls-6" d="M103.38,28.94a119.53,119.53,0,0,1,12.5-.53c4.53.05,8.83,1.26,12.29,1.42,10.09.46,12.18-1,14.86-2.76a31.62,31.62,0,0,0,3.64-2.49c.16.7-2.31,2.31-3.58,3.35l-1.27.73-1.6.79c-6.1,2.44,2.71,2.09,7.62-.34,3.32-1.63,9.16-8.64,9.16-11,0-.4-1.42-.19-3.15.46-2.13.81-3.63.8-4.65-.05s-3.28-1.79-7.21-1c-3.21.62-10.86,1.5-16.56,2.1A150,150,0,0,0,93.8,26.85c-4.64,1.48-22.08,7.95-21,8.12.66.11,8.07-1.95,15.8-3.86A87.29,87.29,0,0,1,103.38,28.94Zm45.33,39.88a146,146,0,0,1-27.15,6.28c-5.51.67-3.27,1.22-.76,2.59,5,2.71,8.93,5.37,6.19,8.61h0c-5.19,3.21-9.62,2-19.84-5.81a29.47,29.47,0,0,0-10.88-5.2c-8.79-1.42-3.18-1.22,14.88-1.17,23.38.07,37.83-6.86,57.08-14.39,7.77-3,16.65-6.67,19.93-5.5,2.75,1,3.24,6.32,1.67,10.54l-2.42,7.32,4.16-6.53c2-3,5-11.52,5.41-13.36s.88-3.46,1.46-3.1c1.88,1.16,4.61-7.47,3.3-10.94-.91-2.39-.91-3.94.79-7.88,1.23-2.83,3.78-8.72,3.43-11.2l-.05-3.22-2.47,4.77c-1.61,2.72-4.56,8.54-8,12-4.4,4.44-5.63,6.3-4.14,6.3,5.29,0-4.87,1.4-18.42,4.82-23.39,5.9-37.07,3.84-53,1-11-2-14-3.17-26.6-2.08a56.56,56.56,0,0,0-7.4,1.2c-2,.44-2.57.81.31,5.36C93,60,93,69.7,84.61,73.41A11.56,11.56,0,0,0,87,70.65c2.92-4.46,2.52-12.14-1-19.93L83.3,44.09,87,42.79c7.47-1.84,20.07-2.35,31.63.33,16.3,3.79,45.31,4.19,54.4-1.42,3.43-2.12-42.11-11.08-61.1-12C86.63,28.43,48.4,42.12,41,52.37c-1.1,1.53.13,4.72.89,6.37C48.26,72.53,75.76,76.67,81.12,68c1.92-3.12,2.21-7.5,1.17-12.09-.78-3.47-2.53-7-1.77-6.26,2.5,2.51,5.15,12.59,3,19.45h0c-1.88,3-1,4.65-.24,4.84a34.74,34.74,0,0,1-11,.57c-23.39-2.09-31.92-9.43-32.67-21.61-.12-2,11-9.35,28.44-17.06,4.7-2.09,9.45-3.91,15-6A231.21,231.21,0,0,1,106,22.18c9.33-2.52,14.54-3.42,28.38-5.17,5.6-.71,8.16-.77,9.65-1.14s4.14-.46,4.76.43c1.27,1.81,4.5,1.21,9.17-2,5.76-3.91,7.6-3.59,6.42.15-.47,1.48-2.57,5-1.68,7.91s-1.42,7.05-3,9l-3.19,3.56,11.22,2.2c12.75,2.91,17.44,3.46,23.34-2.3,6.56-6.41,16.57-24.29,16.21-30.44-.16-2.69-.76-4.39-.06-4.39,2.12,0,2.15,16.39,0,23.15-.7,2.2-1.21,5.75-1.68,7.8-4.07,17.53-9.89,31.64-13,35.16a21.65,21.65,0,0,0-3.17,5c-3,5.92-4.86,3.89-2.65-1.77,3.32-8.51,5.14-14.81-.72-14.81-5.51,0-30.38,11.75-37.3,14.28m-34.9,9.67c6.52,3.06,9.39,5.67,8.07,5.45-2.79-.47-7-2.53-11.4-5-6.15-3.39-11.63-4.73-6.44-1.44,1.6,1,8,5.87,10.8,7.21h0c5.68,2.75,7.13,2.62,10.06.91,4.2-2.45-1.5-7-11.1-8.82C109.72,76.05,108.64,76.06,113.81,78.49Zm90.57-47.28c-.82-.71-2.14,2.39-2.19,3.48-.12,2.23.81,2.51,1.28.53C203.69,34.31,204.72,31.5,204.38,31.21ZM147.1,32.75h0a26.43,26.43,0,0,0,7.62-.14c.61-.16,1.15-.38,1.61-.54,3.42-1.56,5.47-4.05,5.46-7.18,0-1.51-2.5-1.65-4.36.83-2.33,3.11-3,4.65-3.62,5.27-.45.45-.84.52-.84-.26s2.67-2.8,6.1-8.86c2.61-4.6,4.73-8.13,4.39-8.13-2.29,0-5.26,2.92-5.26,5.17,0,3.34-7.54,11.35-10.19,12C146,31.32,143.22,32.33,147.1,32.75Z"/><path id="Bubble_1" class="cls-6" d="M37.18,40.21a2.43,2.43,0,0,0-2.45,1.52,2.31,2.31,0,0,0,.56,2.38,2.28,2.28,0,0,0,2.52.09C39.05,43.3,39,40.21,37.18,40.21Zm.22,3.84a1.7,1.7,0,0,1-2-.19,2.15,2.15,0,0,1-.43-2.09,1.94,1.94,0,0,1,2.3-1.34C38.53,40.68,38.76,43.42,37.4,44.05Z"/><path id="Bubble_2" class="cls-6" d="M47.7,32.18a2.7,2.7,0,0,0-3.49.81A2.85,2.85,0,0,0,44,35.44,2.45,2.45,0,0,0,46.5,36.5C48.18,36.16,49.16,33.09,47.7,32.18Zm-1.54,4.13c-1.26,0-1.72-.47-2-1a2.37,2.37,0,0,1,.46-2.34,2.24,2.24,0,0,1,3-.29C48.85,33.49,47.83,36.3,46.16,36.31Z"/><path id="Bubble_3" class="cls-6" d="M37.14,24.42a3.22,3.22,0,0,0-2.56,3.25c0,.64.91,1.49,1.59,1.84a3.16,3.16,0,0,0,3.22-1.06C40.62,26.87,39.18,23.92,37.14,24.42ZM39,28.56a2.59,2.59,0,0,1-2.68.75,2.25,2.25,0,0,1-1.46-2.07,2.79,2.79,0,0,1,2.47-2.6C39.07,24.3,40.48,27.22,39,28.56Z"/></g></g></g></svg>