<svg xmlns="http://www.w3.org/2000/svg" viewBox="0 0 174.25 87.95"><defs><style>.cls-1{fill:#4d4d4d;}</style></defs><title>fish_dark</title><g id="Layer_2" data-name="Layer 2"><g id="Logo_Dark"><g id="Fish"><path id="Fish-2" data-name="Fish" class="cls-1" d="M68.8,28.94a119.53,119.53,0,0,1,12.5-.53c4.53.05,8.82,1.26,12.29,1.42,10.08.46,12.17-1,14.86-2.76a29.55,29.55,0,0,0,3.63-2.49c.17.7-2.31,2.31-3.58,3.35l-1.27.73-1.59.79c-6.11,2.44,2.71,2.09,7.62-.34,3.32-1.63,9.15-8.64,9.15-11,0-.4-1.42-.19-3.15.46-2.12.81-3.63.8-4.64-.05s-3.29-1.79-7.21-1c-3.22.62-10.87,1.5-16.56,2.1a150,150,0,0,0-31.64,7.24c-4.63,1.48-22.07,7.95-21,8.12.65.11,8.06-1.95,15.8-3.86A87,87,0,0,1,68.8,28.94Zm45.32,39.88A145.74,145.74,0,0,1,87,75.1c-5.51.67-3.27,1.22-.77,2.59,5,2.71,8.94,5.37,6.2,8.61h0c-5.2,3.21-9.63,2-19.84-5.81a29.54,29.54,0,0,0-10.88-5.2c-8.79-1.42-3.18-1.22,14.88-1.17,23.37.07,37.83-6.86,57.07-14.39,7.78-3,16.65-6.67,19.94-5.5,2.75,1,3.24,6.32,1.66,10.54l-2.42,7.32L157,65.56c2-3,5-11.52,5.42-13.36s.87-3.46,1.46-3.1c1.87,1.16,4.61-7.47,3.29-10.94-.91-2.39-.91-3.94.8-7.88,1.23-2.83,3.78-8.72,3.42-11.2l0-3.22-2.48,4.77c-1.6,2.72-4.55,8.54-8,12-4.4,4.44-5.63,6.3-4.15,6.3,5.3,0-4.87,1.4-18.42,4.82-23.38,5.9-37.07,3.84-53,1-11-2-14-3.17-26.6-2.08a56.68,56.68,0,0,0-7.41,1.2c-2,.44-2.56.81.32,5.36C58.4,60,58.45,69.7,50,73.41a11.56,11.56,0,0,0,2.36-2.76c2.92-4.46,2.52-12.14-1-19.93l-2.63-6.63,3.67-1.3C59.86,41,72.46,40.44,84,43.12c16.31,3.79,45.32,4.19,54.4-1.42,3.43-2.12-42.1-11.08-61.1-12C52.05,28.43,13.81,42.12,6.43,52.37c-1.1,1.53.12,4.72.88,6.37C13.68,72.53,41.18,76.67,46.53,68c1.92-3.12,2.21-7.5,1.18-12.09-.79-3.47-2.53-7-1.78-6.26,2.51,2.51,5.16,12.59,3,19.45h0c-1.88,3-1,4.65-.24,4.84a34.74,34.74,0,0,1-11,.57C14.32,72.39,5.79,65.05,5,52.87c-.12-2,11.06-9.35,28.44-17.06,4.71-2.09,9.46-3.91,15-6a232.09,232.09,0,0,1,22.93-7.62c9.33-2.52,14.55-3.42,28.39-5.17,5.59-.71,8.16-.77,9.64-1.14s4.14-.46,4.76.43c1.27,1.81,4.51,1.21,9.18-2,5.75-3.91,7.59-3.59,6.41.15-.47,1.48-2.56,5-1.68,7.91s-1.41,7.05-3,9L122,34.93l11.21,2.2c12.76,2.91,17.45,3.46,23.35-2.3,6.56-6.41,16.57-24.29,16.21-30.44C172.56,1.7,172,0,172.66,0c2.12,0,2.14,16.39,0,23.15-.7,2.2-1.2,5.75-1.68,7.8-4.07,17.53-9.88,31.64-13,35.16a21.76,21.76,0,0,0-3.16,5c-3,5.92-4.87,3.89-2.66-1.77,3.33-8.51,5.14-14.81-.72-14.81-5.51,0-30.37,11.75-37.3,14.28M79.23,78.49c6.52,3.06,9.38,5.67,8.07,5.45-2.79-.47-7-2.53-11.4-5-6.15-3.39-11.64-4.73-6.44-1.44,1.59,1,8,5.87,10.8,7.21h0c5.68,2.75,7.12,2.62,10,.91,4.21-2.45-1.49-7-11.1-8.82C75.14,76.05,74.06,76.06,79.23,78.49ZM169.8,31.21c-.83-.71-2.14,2.39-2.2,3.48-.12,2.23.81,2.51,1.28.53C169.1,34.31,170.14,31.5,169.8,31.21Zm-57.28,1.54h0a26.35,26.35,0,0,0,7.61-.14c.62-.16,1.16-.38,1.62-.54,3.41-1.56,5.46-4.05,5.46-7.18,0-1.51-2.5-1.65-4.36.83-2.33,3.11-3,4.65-3.62,5.27-.45.45-.84.52-.84-.26s2.67-2.8,6.1-8.86c2.6-4.6,4.72-8.13,4.38-8.13-2.29,0-5.26,2.92-5.26,5.17,0,3.34-7.54,11.35-10.19,12C111.38,31.32,108.63,32.33,112.52,32.75Z"/><path id="Bubble_1" class="cls-1" d="M2.6,40.21A2.43,2.43,0,0,0,.14,41.73a2.31,2.31,0,0,0,.57,2.38,2.28,2.28,0,0,0,2.52.09C4.47,43.3,4.38,40.21,2.6,40.21Zm.21,3.84a1.69,1.69,0,0,1-2-.19,2.1,2.1,0,0,1-.43-2.09,1.94,1.94,0,0,1,2.3-1.34C4,40.68,4.18,43.42,2.81,44.05Z"/><path id="Bubble_2" class="cls-1" d="M13.12,32.18a2.71,2.71,0,0,0-3.5.81,2.88,2.88,0,0,0-.22,2.45,2.46,2.46,0,0,0,2.51,1.06C13.59,36.16,14.57,33.09,13.12,32.18Zm-1.55,4.13c-1.26,0-1.72-.47-2-1a2.35,2.35,0,0,1,.46-2.34,2.24,2.24,0,0,1,3-.29C14.26,33.49,13.25,36.3,11.57,36.31Z"/><path id="Bubble_3" class="cls-1" d="M2.56,24.42A3.2,3.2,0,0,0,0,27.67c0,.64.91,1.49,1.58,1.84a3.17,3.17,0,0,0,3.23-1.06C6,26.87,4.59,23.92,2.56,24.42ZM4.4,28.56a2.6,2.6,0,0,1-2.68.75A2.27,2.27,0,0,1,.25,27.24a2.81,2.81,0,0,1,2.47-2.6C4.49,24.3,5.9,27.22,4.4,28.56Z"/></g></g></g></svg>